<svg width="934" height="101" viewBox="0 0 934 101" fill="none" xmlns="http://www.w3.org/2000/svg">
<rect width="934" height="101" fill="white"/>
<path d="M128.236 58.0625C127.798 62.75 126.184 66.3542 123.392 68.875C120.601 71.375 116.809 72.625 112.017 72.625C108.788 72.625 105.923 71.8125 103.423 70.1875C100.944 68.5417 99.0172 66.2188 97.6422 63.2188C96.2672 60.1979 95.5693 56.75 95.5485 52.875V45.8438C95.5485 41.9688 96.2255 38.5104 97.5797 35.4688C98.9339 32.4062 100.861 30.0417 103.361 28.375C105.882 26.7083 108.767 25.875 112.017 25.875C116.767 25.875 120.548 27.125 123.361 29.625C126.173 32.125 127.798 35.7083 128.236 40.375H126.548C126.069 36.1875 124.611 33.0104 122.173 30.8438C119.736 28.6562 116.351 27.5625 112.017 27.5625C107.601 27.5625 104.028 29.2292 101.298 32.5625C98.5901 35.8958 97.236 40.3646 97.236 45.9688V52.6562C97.236 56.2396 97.8401 59.4167 99.0485 62.1875C100.257 64.9375 101.986 67.0833 104.236 68.625C106.507 70.1667 109.101 70.9375 112.017 70.9375C116.371 70.9375 119.767 69.8646 122.205 67.7188C124.663 65.5729 126.111 62.3542 126.548 58.0625H128.236ZM156.111 52.5312H140.33V72H138.642V26.5H153.142C157.705 26.5 161.33 27.6771 164.017 30.0312C166.726 32.3854 168.08 35.5833 168.08 39.625C168.08 42.7292 167.111 45.4479 165.173 47.7812C163.257 50.0938 160.809 51.5312 157.83 52.0938L169.986 71.5625V72H168.205L156.111 52.5312ZM140.33 50.8438H154.673C158.173 50.8438 160.996 49.7812 163.142 47.6562C165.309 45.5312 166.392 42.8542 166.392 39.625C166.392 36.0833 165.194 33.2917 162.798 31.25C160.423 29.2083 157.163 28.1875 153.017 28.1875H140.33V50.8438ZM204.642 58.4062H182.361L177.298 72H175.455L192.486 26.5H194.548L211.58 72H209.736L204.642 58.4062ZM182.986 56.7188H204.017L193.517 28.5312L182.986 56.7188ZM251.548 52.5312H235.767V72H234.08V26.5H248.58C253.142 26.5 256.767 27.6771 259.455 30.0312C262.163 32.3854 263.517 35.5833 263.517 39.625C263.517 42.7292 262.548 45.4479 260.611 47.7812C258.694 50.0938 256.246 51.5312 253.267 52.0938L265.423 71.5625V72H263.642L251.548 52.5312ZM235.767 50.8438H250.111C253.611 50.8438 256.434 49.7812 258.58 47.6562C260.746 45.5312 261.83 42.8542 261.83 39.625C261.83 36.0833 260.632 33.2917 258.236 31.25C255.861 29.2083 252.601 28.1875 248.455 28.1875H235.767V50.8438ZM300.611 49.4375H277.798V70.3125H303.798V72H276.111V26.5H303.798V28.1875H277.798V47.75H300.611V49.4375ZM312.548 72V26.5H325.142C328.663 26.5 331.851 27.3333 334.705 29C337.559 30.6667 339.798 33.0104 341.423 36.0312C343.048 39.0312 343.882 42.3958 343.923 46.125V52.0312C343.923 55.8229 343.121 59.2396 341.517 62.2812C339.934 65.3229 337.715 67.6979 334.861 69.4062C332.007 71.1146 328.819 71.9792 325.298 72H312.548ZM314.236 28.1875V70.3125H325.142C328.33 70.3125 331.226 69.5417 333.83 68C336.455 66.4375 338.507 64.2708 339.986 61.5C341.465 58.7083 342.215 55.6146 342.236 52.2188V46.375C342.236 42.9792 341.507 39.8958 340.048 37.125C338.611 34.3542 336.59 32.1875 333.986 30.625C331.403 29.0417 328.538 28.2292 325.392 28.1875H314.236ZM385.048 26.5V57.3125C385.048 62.125 383.653 65.8854 380.861 68.5938C378.069 71.2812 374.288 72.625 369.517 72.625C364.746 72.625 360.965 71.2812 358.173 68.5938C355.382 65.8854 353.976 62.1667 353.955 57.4375V26.5H355.642V57.25C355.642 61.4583 356.903 64.7917 359.423 67.25C361.965 69.7083 365.33 70.9375 369.517 70.9375C373.705 70.9375 377.059 69.7083 379.58 67.25C382.101 64.7917 383.361 61.4479 383.361 57.2188V26.5H385.048ZM409.955 47.4688L424.642 26.5H426.767L411.017 48.7812L427.361 72H425.267L409.955 50.0938L394.58 72H392.548L408.892 48.7812L393.142 26.5H395.267L409.955 47.4688ZM450.673 72V26.5H462.642C467.538 26.5 471.236 27.5 473.736 29.5C476.257 31.4792 477.517 34.3646 477.517 38.1562C477.517 40.9062 476.819 43.1875 475.423 45C474.028 46.8125 472.059 47.9688 469.517 48.4688C472.392 48.8438 474.788 50.0938 476.705 52.2188C478.621 54.3229 479.58 56.7396 479.58 59.4688C479.58 63.3438 478.319 66.4062 475.798 68.6562C473.298 70.8854 469.809 72 465.33 72H450.673ZM452.361 49.5312V70.3125H465.517C469.371 70.3125 472.392 69.3646 474.58 67.4688C476.788 65.5521 477.892 62.9062 477.892 59.5312C477.892 56.6562 476.83 54.2917 474.705 52.4375C472.58 50.5625 469.736 49.5938 466.173 49.5312H452.361ZM452.361 47.8438H463.267C467.413 47.8438 470.538 47.0521 472.642 45.4688C474.746 43.8646 475.798 41.3854 475.798 38.0312C475.798 31.5729 471.538 28.2917 463.017 28.1875H452.361V47.8438ZM521.517 52.6562C521.517 56.5938 520.809 60.0833 519.392 63.125C517.996 66.1458 515.996 68.4896 513.392 70.1562C510.788 71.8021 507.788 72.625 504.392 72.625C499.267 72.625 495.121 70.8021 491.955 67.1562C488.788 63.5104 487.205 58.5938 487.205 52.4062V45.8438C487.205 41.9271 487.903 38.4479 489.298 35.4062C490.715 32.3646 492.726 30.0208 495.33 28.375C497.955 26.7083 500.955 25.875 504.33 25.875C507.726 25.875 510.726 26.7083 513.33 28.375C515.955 30.0208 517.976 32.375 519.392 35.4375C520.809 38.4792 521.517 41.9479 521.517 45.8438V52.6562ZM519.83 45.7812C519.83 40.2812 518.434 35.875 515.642 32.5625C512.851 29.2292 509.08 27.5625 504.33 27.5625C499.642 27.5625 495.903 29.2188 493.111 32.5312C490.319 35.8229 488.923 40.3125 488.923 46V52.6562C488.923 56.2812 489.548 59.4896 490.798 62.2812C492.069 65.0521 493.871 67.1875 496.205 68.6875C498.538 70.1875 501.267 70.9375 504.392 70.9375C509.142 70.9375 512.903 69.2812 515.673 65.9688C518.444 62.6562 519.83 58.1354 519.83 52.4062V45.7812ZM534.861 72H533.173V26.5H534.861V72ZM550.33 70.3125H573.673V72H548.611V26.5H550.33V70.3125ZM606.173 49.4375H583.361V70.3125H609.361V72H581.673V26.5H609.361V28.1875H583.361V47.75H606.173V49.4375ZM635.423 52.5312H619.642V72H617.955V26.5H632.455C637.017 26.5 640.642 27.6771 643.33 30.0312C646.038 32.3854 647.392 35.5833 647.392 39.625C647.392 42.7292 646.423 45.4479 644.486 47.7812C642.569 50.0938 640.121 51.5312 637.142 52.0938L649.298 71.5625V72H647.517L635.423 52.5312ZM619.642 50.8438H633.986C637.486 50.8438 640.309 49.7812 642.455 47.6562C644.621 45.5312 645.705 42.8542 645.705 39.625C645.705 36.0833 644.507 33.2917 642.111 31.25C639.736 29.2083 636.476 28.1875 632.33 28.1875H619.642V50.8438ZM661.673 52.7812V72H659.986V26.5H674.205C678.851 26.5 682.455 27.6771 685.017 30.0312C687.601 32.3646 688.892 35.6146 688.892 39.7812C688.892 43.9062 687.632 47.0938 685.111 49.3438C682.611 51.5938 679.048 52.7396 674.423 52.7812H661.673ZM661.673 51.0938H674.205C678.309 51.0938 681.496 50.1042 683.767 48.125C686.059 46.1458 687.205 43.3854 687.205 39.8438C687.205 36.1771 686.059 33.3229 683.767 31.2812C681.496 29.2188 678.309 28.1875 674.205 28.1875H661.673V51.0938ZM700.142 70.3125H723.486V72H698.423V26.5H700.142V70.3125ZM756.08 58.4062H733.798L728.736 72H726.892L743.923 26.5H745.986L763.017 72H761.173L756.08 58.4062ZM734.423 56.7188H755.455L744.955 28.5312L734.423 56.7188ZM796.58 28.1875H780.017V72H778.33V28.1875H761.767V26.5H796.58V28.1875ZM829.048 49.4375H806.236V70.3125H832.236V72H804.548V26.5H832.236V28.1875H806.236V47.75H829.048V49.4375Z" fill="black"/>
<circle cx="876.564" cy="50.5" r="26.7885" fill="#764ABC"/>
<path d="M883.708 57.4745C885.074 57.3331 886.111 56.155 886.064 54.7412C886.017 53.3275 884.839 52.1965 883.425 52.1965H883.331C881.87 52.2436 880.739 53.4689 880.786 54.9297C880.833 55.6366 881.116 56.2492 881.54 56.6733C879.938 59.8307 877.487 62.1398 873.812 64.0719C871.314 65.3914 868.722 65.8627 866.13 65.5328C864.01 65.25 862.36 64.3075 861.323 62.7524C859.815 60.4433 859.674 57.9457 860.946 55.4481C861.842 53.6574 863.256 52.3379 864.151 51.6781C863.962 51.0655 863.68 50.0287 863.538 49.2747C856.705 54.2228 857.412 60.9146 859.486 64.0719C861.041 66.4282 864.198 67.889 867.685 67.889C868.628 67.889 869.57 67.7948 870.513 67.5592C876.545 66.381 881.116 62.7996 883.708 57.4745V57.4745Z" fill="white"/>
<path d="M892.002 51.631C888.42 47.4369 883.142 45.1278 877.11 45.1278H876.356C875.932 44.2795 875.037 43.714 874.047 43.714H873.953C872.492 43.7611 871.361 44.9864 871.408 46.4473C871.455 47.861 872.633 48.992 874.047 48.992H874.141C875.178 48.9449 876.074 48.2851 876.451 47.3898H877.299C880.88 47.3898 884.273 48.4265 887.336 50.4529C889.693 52.008 891.389 54.0343 892.332 56.4848C893.133 58.4641 893.086 60.3962 892.237 62.0455C890.918 64.5432 888.703 65.9098 885.781 65.9098C883.896 65.9098 882.105 65.3443 881.163 64.9202C880.645 65.3914 879.702 66.1454 879.042 66.6167C881.069 67.5591 883.142 68.0775 885.121 68.0775C889.645 68.0775 892.991 65.5799 894.264 63.0823C895.63 60.3491 895.536 55.6366 892.002 51.631Z" fill="white"/>
<path d="M868.062 58.2756C868.109 59.6893 869.288 60.8203 870.701 60.8203H870.796C872.256 60.7732 873.387 59.5479 873.34 58.0871C873.293 56.6733 872.115 55.5423 870.701 55.5423H870.607C870.513 55.5423 870.371 55.5423 870.277 55.5895C868.345 52.385 867.544 48.8977 867.827 45.1278C868.015 42.3003 868.958 39.8498 870.607 37.8234C871.974 36.0798 874.613 35.2316 876.403 35.1844C881.399 35.0902 883.519 41.3107 883.661 43.8083C884.273 43.9496 885.31 44.2795 886.017 44.5151C885.451 36.8809 880.739 32.9225 876.215 32.9225C871.974 32.9225 868.062 35.9856 866.507 40.5095C864.339 46.5415 865.753 52.3379 868.392 56.909C868.157 57.2388 868.015 57.7572 868.062 58.2756V58.2756Z" fill="white"/>
<circle cx="57.4356" cy="50.5" r="26.7885" fill="black"/>
<g clip-path="url(#clip0)">
<path d="M70.0016 44.52C69.5865 44.3805 69.168 44.2512 68.7461 44.1324C68.816 43.8539 68.8807 43.5742 68.9401 43.2933C69.8904 38.773 69.269 35.1315 67.1471 33.9327C65.1127 32.7829 61.7853 33.9817 58.4248 36.8472C58.0936 37.1302 57.77 37.4213 57.4537 37.7204C57.242 37.5215 57.0266 37.3266 56.8075 37.1355C53.2856 34.0714 49.7554 32.7803 47.6357 33.9826C45.6032 35.1355 45.0012 38.5591 45.8567 42.843C45.9419 43.2672 46.038 43.6891 46.145 44.1087C45.6455 44.2477 45.1631 44.3959 44.7015 44.5535C40.5726 45.964 37.9356 48.1748 37.9356 50.4677C37.9356 52.8361 40.7662 55.2117 45.0671 56.6518C45.4158 56.7681 45.7674 56.8757 46.1217 56.9749C46.0066 57.4268 45.9045 57.8816 45.8153 58.3392C44.9996 62.5487 45.6367 65.891 47.6639 67.0369C49.7577 68.2198 53.2718 67.0039 56.6938 64.073C56.9642 63.8413 57.2355 63.5963 57.5076 63.3379C57.85 63.6617 58.2014 63.9758 58.5618 64.2805C61.8764 67.0752 65.1499 68.2038 67.1754 67.0549C69.2673 65.8684 69.947 62.2777 69.0644 57.9091C68.9971 57.5754 68.9191 57.2349 68.8305 56.8876C69.0773 56.8162 69.3191 56.7422 69.5558 56.6657C74.0268 55.2144 76.9356 52.8678 76.9356 50.4678C76.9356 48.1665 74.2137 45.9408 70.0016 44.52ZM59.5185 38.0788C62.3979 35.6234 65.0889 34.6541 66.315 35.3469C67.6209 36.085 68.1289 39.0611 67.3083 42.9639C67.2545 43.2182 67.1961 43.4714 67.133 43.7236C65.4148 43.3421 63.6728 43.0724 61.9184 42.9164C60.9132 41.5015 59.8118 40.1546 58.6217 38.8848C58.9138 38.6089 59.2127 38.3402 59.5185 38.0788ZM49.451 52.4265C49.8037 53.0941 50.1722 53.7532 50.5567 54.4039C50.9488 55.0675 51.357 55.7217 51.7811 56.3664C50.5739 56.2381 49.3743 56.0491 48.1869 55.8002C48.5312 54.7107 48.9554 53.5783 49.451 52.4265ZM49.4491 48.5871C48.9639 47.4596 48.5488 46.351 48.2098 45.2804C49.3226 45.0364 50.5091 44.837 51.7455 44.6856C51.3317 45.3181 50.9331 45.9598 50.5499 46.6109C50.1673 47.2611 49.8004 47.9198 49.4491 48.5871ZM50.3347 50.507C50.848 49.4601 51.401 48.4331 51.9935 47.4262V47.4266C52.5855 46.4202 53.2159 45.4369 53.8846 44.4767C55.0444 44.3908 56.2336 44.3458 57.4358 44.3458C58.6433 44.3458 59.8341 44.3911 60.9936 44.4777C61.6551 45.4357 62.2814 46.4157 62.8727 47.4176C63.4669 48.4215 64.0273 49.4436 64.554 50.4838C64.033 51.5341 63.4744 52.5652 62.8782 53.5771H62.878C62.2872 54.5827 61.6636 55.5687 61.007 56.535C59.8499 56.616 58.6542 56.6578 57.4356 56.6578C56.2221 56.6578 55.0415 56.6208 53.9046 56.5486C53.2313 55.585 52.596 54.5975 51.9986 53.586C51.4043 52.5807 50.8497 51.5543 50.3347 50.507H50.3347ZM64.3213 54.3926C64.7136 53.726 65.0906 53.0511 65.4523 52.3678C65.948 53.4654 66.3851 54.5875 66.762 55.7295C65.561 55.994 64.3466 56.1968 63.124 56.3372C63.5362 55.6968 63.9353 55.0486 64.3213 54.3926H64.3213ZM65.4365 48.5883C65.0761 47.9181 64.7021 47.2553 64.3146 46.5997C63.9334 45.9544 63.538 45.3174 63.1287 44.6886C64.3731 44.8426 65.5653 45.0472 66.6847 45.2977C66.3254 46.4144 65.9088 47.5127 65.4365 48.5883H65.4365ZM57.4543 40.0523C58.2654 40.9188 59.0314 41.8248 59.7493 42.7671C58.2137 42.696 56.6772 42.6956 55.1399 42.766C55.8977 41.787 56.6738 40.8774 57.4543 40.0523ZM48.4704 35.3955C49.7753 34.6554 52.6603 35.7107 55.7012 38.3563C55.8955 38.5254 56.0907 38.7025 56.2863 38.8856C55.0893 40.1551 53.9794 41.5009 52.9641 42.9142C51.2137 43.068 49.4753 43.3328 47.7598 43.7067C47.6604 43.3165 47.571 42.924 47.4918 42.5293V42.5295C46.7587 38.859 47.2455 36.0903 48.4704 35.3955ZM46.5687 55.4024C46.2454 55.3117 45.9245 55.2133 45.606 55.1071C43.9544 54.5979 42.4125 53.7953 41.0573 52.7394C40.669 52.4784 40.3395 52.1421 40.0892 51.7514C39.8388 51.3607 39.6728 50.9238 39.6016 50.4677C39.6016 49.0764 41.7189 47.3014 45.2501 46.0951C45.6933 45.9443 46.1408 45.8064 46.5924 45.6812C47.1168 47.3293 47.7517 48.9415 48.4932 50.5075C47.7424 52.0958 47.0995 53.731 46.5687 55.4024V55.4024ZM55.5974 62.8437C54.3222 63.9913 52.8423 64.8991 51.2317 65.5218H51.2315C50.8069 65.7209 50.345 65.8326 49.8746 65.85C49.4041 65.8673 48.935 65.7899 48.4963 65.6226C47.266 64.9275 46.7548 62.2435 47.4523 58.6437C47.5352 58.2183 47.6301 57.7954 47.7371 57.375C49.4698 57.7396 51.2257 57.9887 52.9928 58.1204C54.0169 59.5418 55.1353 60.8957 56.3405 62.1733C56.0984 62.4027 55.8507 62.6262 55.5974 62.8437ZM57.5003 60.9986C56.7107 60.1636 55.9231 59.2402 55.1538 58.2469C55.9005 58.2757 56.6611 58.2902 57.4356 58.2902C58.2306 58.2902 59.0153 58.2732 59.7899 58.239C59.0753 59.1966 58.3111 60.1176 57.5003 60.9985V60.9986ZM67.6175 63.2698C67.5815 63.7298 67.4496 64.1776 67.23 64.5857C67.0104 64.9937 66.7077 65.3533 66.3406 65.6421C65.1115 66.3393 62.483 65.4331 59.6486 63.043C59.3236 62.7691 58.9967 62.477 58.6679 62.167C59.8498 60.8849 60.942 59.526 61.9369 58.0996C63.7142 57.9527 65.4791 57.6862 67.219 57.3019C67.2984 57.6165 67.3688 57.9246 67.4301 58.2263C67.8079 59.882 67.8714 61.5917 67.6175 63.2699V63.2698ZM69.0319 55.1162H69.0317C68.8186 55.1854 68.5997 55.2522 68.3767 55.317C67.8314 53.6612 67.1716 52.0437 66.4018 50.4758C67.1424 48.9289 67.7765 47.3351 68.2999 45.7052C68.6988 45.8185 69.0861 45.9378 69.4593 46.0637C73.0683 47.2809 75.2697 49.0809 75.2697 50.4677C75.2697 51.945 72.8921 53.8629 69.0319 55.1163V55.1162Z" fill="white"/>
<path d="M57.4356 47.0553C58.1244 47.0553 58.7978 47.2554 59.3705 47.6304C59.9432 48.0054 60.3896 48.5383 60.6532 49.1619C60.9168 49.7854 60.9858 50.4716 60.8514 51.1335C60.717 51.7955 60.3853 52.4035 59.8983 52.8808C59.4112 53.358 58.7907 53.6831 58.1151 53.8147C57.4395 53.9464 56.7393 53.8788 56.1029 53.6205C55.4665 53.3622 54.9226 52.9248 54.54 52.3636C54.1573 51.8024 53.953 51.1427 53.9531 50.4677C53.9531 49.5627 54.32 48.6947 54.9731 48.0548C55.6262 47.4148 56.512 47.0553 57.4356 47.0553" fill="white"/>
</g>
<defs>
<clipPath id="clip0">
<rect width="39" height="34" fill="white" transform="translate(37.9356 33.5)"/>
</clipPath>
</defs>
</svg>
